<svg width="1920" height="1080" viewBox="0 0 1920 1080" fill="none" xmlns="http://www.w3.org/2000/svg">
<rect width="1920" height="881.883" fill="#2F2E41"/>
<g clip-path="url(#clip0)">
<path d="M910.367 100.889C915.596 100.889 919.834 96.9639 919.834 92.1224C919.834 87.281 915.596 83.3562 910.367 83.3562C905.138 83.3562 900.899 87.281 900.899 92.1224C900.899 96.9639 905.138 100.889 910.367 100.889Z" fill="#F2F2F2"/>
<path d="M613.089 384.915C615.18 384.915 616.876 383.345 616.876 381.408C616.876 379.472 615.18 377.902 613.089 377.902C610.997 377.902 609.302 379.472 609.302 381.408C609.302 383.345 610.997 384.915 613.089 384.915Z" fill="#F2F2F2"/>
<path d="M1171.67 549.72C1173.76 549.72 1175.46 548.15 1175.46 546.214C1175.46 544.277 1173.76 542.707 1171.67 542.707C1169.58 542.707 1167.88 544.277 1167.88 546.214C1167.88 548.15 1169.58 549.72 1171.67 549.72Z" fill="#F2F2F2"/>
<path d="M185.16 505.889C187.252 505.889 188.947 504.319 188.947 502.382C188.947 500.446 187.252 498.876 185.16 498.876C183.069 498.876 181.373 500.446 181.373 502.382C181.373 504.319 183.069 505.889 185.16 505.889Z" fill="#F2F2F2"/>
<path d="M1662.08 381.408C1664.17 381.408 1665.87 379.838 1665.87 377.902C1665.87 375.965 1664.17 374.395 1662.08 374.395C1659.99 374.395 1658.3 375.965 1658.3 377.902C1658.3 379.838 1659.99 381.408 1662.08 381.408Z" fill="#F2F2F2"/>
<path d="M446.462 418.226C448.553 418.226 450.249 416.656 450.249 414.72C450.249 412.783 448.553 411.213 446.462 411.213C444.37 411.213 442.675 412.783 442.675 414.72C442.675 416.656 444.37 418.226 446.462 418.226Z" fill="#F2F2F2"/>
<path d="M1067.53 348.096C1069.62 348.096 1071.31 346.527 1071.31 344.59C1071.31 342.653 1069.62 341.083 1067.53 341.083C1065.44 341.083 1063.74 342.653 1063.74 344.59C1063.74 346.527 1065.44 348.096 1067.53 348.096Z" fill="#F2F2F2"/>
<path d="M1192.5 95.629C1194.59 95.629 1196.28 94.059 1196.28 92.1225C1196.28 90.1859 1194.59 88.616 1192.5 88.616C1190.41 88.616 1188.71 90.1859 1188.71 92.1225C1188.71 94.059 1190.41 95.629 1192.5 95.629Z" fill="#F2F2F2"/>
<path d="M404.805 505.889H401.018V507.642H404.805V505.889Z" fill="#F2F2F2"/>
<path d="M516.521 237.642H512.734V239.395H516.521V237.642Z" fill="#F2F2F2"/>
<path d="M789.183 437.512H785.396V439.265H789.183V437.512Z" fill="#F2F2F2"/>
<path d="M1512.5 514.655H1508.71V516.408H1512.5V514.655Z" fill="#F2F2F2"/>
<path d="M1287.17 246.408H1283.38V248.161H1287.17V246.408Z" fill="#F2F2F2"/>
<path d="M432.868 637.621H426.205V881.328H432.868V637.621Z" fill="#3F3D56"/>
<path d="M494.363 595.042C494.787 680.26 430.035 749.621 430.035 749.621C430.035 749.621 364.596 680.816 364.172 595.598C363.748 510.379 428.499 441.019 428.499 441.019C428.499 441.019 493.939 509.824 494.363 595.042Z" fill="#3F3D56"/>
<path d="M350.622 565.373H341.983V881.328H350.622V565.373Z" fill="#3F3D56"/>
<path d="M430.347 532.002C430.897 642.483 346.95 732.406 346.95 732.406C346.95 732.406 262.111 643.203 261.561 532.722C261.011 422.24 344.958 332.317 344.958 332.317C344.958 332.317 429.797 421.52 430.347 532.002Z" fill="#3F3D56"/>
<path d="M1355 637.621H1348.33V881.328H1355V637.621Z" fill="#2ECC71"/>
<path d="M1416.49 668.679C1416.92 753.897 1352.17 823.258 1352.17 823.258C1352.17 823.258 1286.73 754.452 1286.3 669.234C1285.88 584.016 1350.63 514.655 1350.63 514.655C1350.63 514.655 1416.07 583.46 1416.49 668.679Z" fill="#3F3D56"/>
<path d="M273.815 637.621H267.151V881.328H273.815V637.621Z" fill="#3F3D56"/>
<path d="M335.309 595.042C335.734 680.26 270.982 749.621 270.982 749.621C270.982 749.621 205.543 680.816 205.119 595.598C204.695 510.379 269.446 441.019 269.446 441.019C269.446 441.019 334.885 509.824 335.309 595.042Z" fill="#3F3D56"/>
<path d="M860.797 637.621H854.134V881.328H860.797V637.621Z" fill="#3F3D56"/>
<path d="M922.292 595.042C922.716 680.26 857.965 749.621 857.965 749.621C857.965 749.621 792.525 680.816 792.101 595.598C791.677 510.379 856.429 441.019 856.429 441.019C856.429 441.019 921.868 509.824 922.292 595.042Z" fill="#3F3D56"/>
<path d="M778.551 565.373H769.912V881.328H778.551V565.373Z" fill="#3F3D56"/>
<path d="M858.276 532.002C858.826 642.483 774.878 732.406 774.878 732.406C774.878 732.406 690.039 643.203 689.49 532.722C688.94 422.24 772.887 332.317 772.887 332.317C772.887 332.317 857.726 421.52 858.276 532.002Z" fill="#3F3D56"/>
<path d="M701.744 637.621H695.08V881.328H701.744V637.621Z" fill="#3F3D56"/>
<path d="M763.239 595.042C763.663 680.26 698.911 749.621 698.911 749.621C698.911 749.621 633.472 680.816 633.048 595.598C632.624 510.379 697.375 441.019 697.375 441.019C697.375 441.019 762.815 509.824 763.239 595.042Z" fill="#3F3D56"/>
<path d="M1398.08 751.114L1286.74 656.319C1286.44 660.579 1286.28 664.884 1286.3 669.234C1286.73 754.453 1352.17 823.258 1352.17 823.258C1371.22 801.431 1386.69 777.121 1398.08 751.114V751.114Z" fill="#2ECC71"/>
<path d="M569.266 859.589C573.081 872.646 586.148 880.733 586.148 880.733C586.148 880.733 593.03 867.65 589.215 854.592C585.4 841.534 572.333 833.447 572.333 833.447C572.333 833.447 565.451 846.531 569.266 859.589Z" fill="#3F3D56"/>
<path d="M574.872 856.782C585.34 866.218 586.619 880.723 586.619 880.723C586.619 880.723 570.925 879.929 560.457 870.494C549.989 861.058 548.71 846.553 548.71 846.553C548.71 846.553 564.404 847.347 574.872 856.782Z" fill="#3F3D56"/>
<path d="M1107.02 859.589C1110.83 872.646 1123.9 880.733 1123.9 880.733C1123.9 880.733 1130.78 867.65 1126.97 854.592C1123.15 841.534 1110.08 833.447 1110.08 833.447C1110.08 833.447 1103.2 846.531 1107.02 859.589Z" fill="#2ECC71"/>
<path d="M1112.62 856.782C1123.09 866.218 1124.37 880.723 1124.37 880.723C1124.37 880.723 1108.68 879.929 1098.21 870.494C1087.74 861.058 1086.46 846.553 1086.46 846.553C1086.46 846.553 1102.16 847.347 1112.62 856.782Z" fill="#2ECC71"/>
<path d="M145.124 859.589C148.939 872.646 162.006 880.733 162.006 880.733C162.006 880.733 168.888 867.65 165.073 854.592C161.258 841.534 148.191 833.447 148.191 833.447C148.191 833.447 141.309 846.531 145.124 859.589Z" fill="#3F3D56"/>
<path d="M150.73 856.782C161.198 866.218 162.477 880.723 162.477 880.723C162.477 880.723 146.783 879.929 136.315 870.494C125.847 861.058 124.568 846.553 124.568 846.553C124.568 846.553 140.262 847.347 150.73 856.782Z" fill="#3F3D56"/>
<path d="M733.411 386.955L916.152 642.335C920.234 626.855 922.296 610.977 922.292 595.042C922.085 553.487 906.418 515.839 890.418 488.164L881.965 490.109L889.916 487.301C880.494 470.852 869.273 455.344 856.428 441.019C856.428 441.019 851.766 446.015 844.955 454.965C820.946 382.857 772.887 332.317 772.887 332.317C757.887 349.329 744.669 367.624 733.411 386.955V386.955Z" fill="#2ECC71"/>
<path d="M1676.95 783.383C1677.27 783.332 1677.58 783.253 1677.89 783.179C1676.89 783.065 1675.88 783.155 1674.92 783.444C1675.6 783.501 1676.28 783.481 1676.95 783.383V783.383Z" fill="#FF6584"/>
<path d="M1697.83 867.067C1697.93 867.146 1698.02 867.228 1698.12 867.305C1698.05 867.211 1697.97 867.12 1697.91 867.023L1697.83 867.067Z" fill="#FF6584"/>
<path opacity="0.1" d="M1088.24 487.327L1088.24 487.325L1046.93 452.152L1046.56 452.238L1030.01 438.312L1029.21 438.096L1030.07 437.793L854.133 288.008L684.219 143.349L597.639 185.872L590.557 187.324L694.315 332.317L1086.99 881.084H1550.75L1088.24 487.327Z" fill="#F2F2F2"/>
<path d="M633.917 209.59C662.152 209.59 685.042 188.396 685.042 162.252C685.042 136.109 662.152 114.915 633.917 114.915C605.682 114.915 582.793 136.109 582.793 162.252C582.793 188.396 605.682 209.59 633.917 209.59Z" fill="#F2F2F2"/>
</g>
<path d="M385.125 1015.88C384.187 1014.05 383.508 1011.78 383.086 1009.06C378.164 1014.55 371.765 1017.29 363.89 1017.29C356.437 1017.29 350.25 1015.13 345.328 1010.82C340.453 1006.51 338.015 1001.07 338.015 994.508C338.015 986.446 340.992 980.258 346.945 975.946C352.945 971.633 361.594 969.453 372.89 969.406H382.242V965.047C382.242 961.531 381.328 958.719 379.5 956.61C377.719 954.5 374.883 953.446 370.992 953.446C367.57 953.446 364.875 954.266 362.906 955.906C360.984 957.547 360.023 959.797 360.023 962.656H339.703C339.703 958.25 341.062 954.172 343.781 950.422C346.5 946.672 350.344 943.742 355.312 941.633C360.281 939.477 365.859 938.399 372.047 938.399C381.422 938.399 388.851 940.766 394.336 945.5C399.867 950.188 402.633 956.797 402.633 965.328V998.305C402.68 1005.52 403.687 1010.98 405.656 1014.69V1015.88H385.125ZM368.32 1001.75C371.32 1001.75 374.086 1001.09 376.617 999.781C379.148 998.422 381.023 996.617 382.242 994.367V981.289H374.648C364.476 981.289 359.062 984.805 358.406 991.836L358.336 993.031C358.336 995.563 359.226 997.649 361.008 999.289C362.789 1000.93 365.226 1001.75 368.32 1001.75ZM436.945 939.805L437.578 948.594C443.015 941.797 450.305 938.399 459.445 938.399C467.508 938.399 473.508 940.766 477.445 945.5C481.383 950.235 483.398 957.313 483.492 966.735V1015.88H463.172V967.227C463.172 962.914 462.234 959.797 460.359 957.875C458.484 955.906 455.367 954.922 451.008 954.922C445.289 954.922 441 957.36 438.14 962.235V1015.88H417.82V939.805H436.945ZM496.008 977.281C496.008 965.61 498.773 956.211 504.305 949.086C509.883 941.961 517.383 938.399 526.805 938.399C535.148 938.399 541.64 941.258 546.281 946.977L547.125 939.805H565.547V1013.35C565.547 1020.01 564.023 1025.8 560.976 1030.72C557.976 1035.64 553.734 1039.39 548.25 1041.97C542.765 1044.55 536.344 1045.84 528.984 1045.84C523.406 1045.84 517.969 1044.71 512.672 1042.46C507.375 1040.26 503.367 1037.4 500.648 1033.88L509.648 1021.51C514.711 1027.18 520.851 1030.02 528.07 1030.02C533.461 1030.02 537.656 1028.56 540.656 1025.66C543.656 1022.8 545.156 1018.72 545.156 1013.42V1009.34C540.469 1014.64 534.305 1017.29 526.664 1017.29C517.523 1017.29 510.117 1013.73 504.445 1006.6C498.82 999.43 496.008 989.938 496.008 978.125V977.281ZM516.328 978.758C516.328 985.649 517.711 991.063 520.476 995C523.242 998.891 527.039 1000.84 531.867 1000.84C538.055 1000.84 542.484 998.516 545.156 993.875V961.883C542.437 957.242 538.055 954.922 532.008 954.922C527.133 954.922 523.289 956.914 520.476 960.899C517.711 964.883 516.328 970.836 516.328 978.758ZM626.789 1008.15C621.773 1014.24 614.836 1017.29 605.976 1017.29C597.82 1017.29 591.586 1014.95 587.273 1010.26C583.008 1005.57 580.828 998.703 580.734 989.656V939.805H601.055V988.953C601.055 996.875 604.664 1000.84 611.883 1000.84C618.773 1000.84 623.508 998.446 626.086 993.664V939.805H646.476V1015.88H627.351L626.789 1008.15ZM683.25 1015.88H662.859V907.883H683.25V1015.88ZM744.14 1015.88C743.203 1014.05 742.523 1011.78 742.101 1009.06C737.18 1014.55 730.781 1017.29 722.906 1017.29C715.453 1017.29 709.265 1015.13 704.344 1010.82C699.469 1006.51 697.031 1001.07 697.031 994.508C697.031 986.446 700.008 980.258 705.961 975.946C711.961 971.633 720.609 969.453 731.906 969.406H741.258V965.047C741.258 961.531 740.344 958.719 738.515 956.61C736.734 954.5 733.898 953.446 730.008 953.446C726.586 953.446 723.89 954.266 721.922 955.906C720 957.547 719.039 959.797 719.039 962.656H698.719C698.719 958.25 700.078 954.172 702.797 950.422C705.515 946.672 709.359 943.742 714.328 941.633C719.297 939.477 724.875 938.399 731.062 938.399C740.437 938.399 747.867 940.766 753.351 945.5C758.883 950.188 761.648 956.797 761.648 965.328V998.305C761.695 1005.52 762.703 1010.98 764.672 1014.69V1015.88H744.14ZM727.336 1001.75C730.336 1001.75 733.101 1001.09 735.633 999.781C738.164 998.422 740.039 996.617 741.258 994.367V981.289H733.664C723.492 981.289 718.078 984.805 717.422 991.836L717.351 993.031C717.351 995.563 718.242 997.649 720.023 999.289C721.805 1000.93 724.242 1001.75 727.336 1001.75ZM820.008 958.86C817.242 958.485 814.805 958.297 812.695 958.297C805.008 958.297 799.969 960.899 797.578 966.102V1015.88H777.258V939.805H796.453L797.015 948.875C801.094 941.891 806.742 938.399 813.961 938.399C816.211 938.399 818.32 938.703 820.289 939.313L820.008 958.86ZM869.367 980.235H829.781V963.852H869.367V980.235ZM882.515 977.281C882.515 965.422 885.164 955.977 890.461 948.946C895.805 941.914 903.094 938.399 912.328 938.399C919.734 938.399 925.851 941.164 930.68 946.696V907.883H951.07V1015.88H932.719L931.734 1007.8C926.672 1014.13 920.156 1017.29 912.187 1017.29C903.234 1017.29 896.039 1013.77 890.601 1006.74C885.211 999.664 882.515 989.844 882.515 977.281ZM902.836 978.758C902.836 985.883 904.078 991.344 906.562 995.141C909.047 998.938 912.656 1000.84 917.39 1000.84C923.672 1000.84 928.101 998.188 930.68 992.891V962.867C928.148 957.571 923.765 954.922 917.531 954.922C907.734 954.922 902.836 962.867 902.836 978.758ZM1010.91 1015.88C1009.97 1014.05 1009.29 1011.78 1008.87 1009.06C1003.95 1014.55 997.547 1017.29 989.672 1017.29C982.219 1017.29 976.031 1015.13 971.109 1010.82C966.234 1006.51 963.797 1001.07 963.797 994.508C963.797 986.446 966.773 980.258 972.726 975.946C978.726 971.633 987.375 969.453 998.672 969.406H1008.02V965.047C1008.02 961.531 1007.11 958.719 1005.28 956.61C1003.5 954.5 1000.66 953.446 996.773 953.446C993.351 953.446 990.656 954.266 988.687 955.906C986.765 957.547 985.805 959.797 985.805 962.656H965.484C965.484 958.25 966.844 954.172 969.562 950.422C972.281 946.672 976.125 943.742 981.094 941.633C986.062 939.477 991.64 938.399 997.828 938.399C1007.2 938.399 1014.63 940.766 1020.12 945.5C1025.65 950.188 1028.41 956.797 1028.41 965.328V998.305C1028.46 1005.52 1029.47 1010.98 1031.44 1014.69V1015.88H1010.91ZM994.101 1001.75C997.101 1001.75 999.867 1001.09 1002.4 999.781C1004.93 998.422 1006.8 996.617 1008.02 994.367V981.289H1000.43C990.258 981.289 984.844 984.805 984.187 991.836L984.117 993.031C984.117 995.563 985.008 997.649 986.789 999.289C988.57 1000.93 991.008 1001.75 994.101 1001.75ZM1086.77 958.86C1084.01 958.485 1081.57 958.297 1079.46 958.297C1071.77 958.297 1066.73 960.899 1064.34 966.102V1015.88H1044.02V939.805H1063.22L1063.78 948.875C1067.86 941.891 1073.51 938.399 1080.73 938.399C1082.98 938.399 1085.09 938.703 1087.05 939.313L1086.77 958.86ZM1124.25 985.367L1116.94 992.68V1015.88H1096.62V907.883H1116.94V967.719L1120.87 962.656L1140.35 939.805H1164.75L1137.26 971.516L1167.14 1015.88H1143.8L1124.25 985.367ZM1213.05 980.235H1173.47V963.852H1213.05V980.235ZM1248.42 939.805L1249.05 948.313C1254.45 941.703 1261.73 938.399 1270.92 938.399C1280.72 938.399 1287.45 942.266 1291.1 950C1296.45 942.266 1304.06 938.399 1313.95 938.399C1322.2 938.399 1328.34 940.813 1332.37 945.641C1336.41 950.422 1338.42 957.641 1338.42 967.297V1015.88H1318.03V967.367C1318.03 963.055 1317.19 959.914 1315.5 957.946C1313.81 955.93 1310.84 954.922 1306.57 954.922C1300.48 954.922 1296.26 957.828 1293.91 963.641L1293.98 1015.88H1273.66V967.438C1273.66 963.031 1272.8 959.844 1271.06 957.875C1269.33 955.906 1266.37 954.922 1262.2 954.922C1256.44 954.922 1252.27 957.313 1249.69 962.094V1015.88H1229.37V939.805H1248.42ZM1350.94 977.141C1350.94 969.594 1352.39 962.867 1355.3 956.961C1358.2 951.055 1362.37 946.485 1367.81 943.25C1373.3 940.016 1379.65 938.399 1386.87 938.399C1397.13 938.399 1405.5 941.539 1411.97 947.821C1418.48 954.102 1422.12 962.633 1422.87 973.414L1423.01 978.617C1423.01 990.289 1419.75 999.664 1413.23 1006.74C1406.72 1013.77 1397.98 1017.29 1387.01 1017.29C1376.04 1017.29 1367.27 1013.77 1360.71 1006.74C1354.2 999.711 1350.94 990.149 1350.94 978.055V977.141ZM1371.26 978.617C1371.26 985.836 1372.62 991.367 1375.34 995.211C1378.05 999.008 1381.95 1000.91 1387.01 1000.91C1391.93 1000.91 1395.77 999.031 1398.54 995.281C1401.3 991.485 1402.69 985.438 1402.69 977.141C1402.69 970.063 1401.3 964.578 1398.54 960.688C1395.77 956.797 1391.88 954.852 1386.87 954.852C1381.9 954.852 1378.05 956.797 1375.34 960.688C1372.62 964.531 1371.26 970.508 1371.26 978.617ZM1432.36 977.281C1432.36 965.422 1435.01 955.977 1440.3 948.946C1445.65 941.914 1452.94 938.399 1462.17 938.399C1469.58 938.399 1475.7 941.164 1480.52 946.696V907.883H1500.91V1015.88H1482.56L1481.58 1007.8C1476.52 1014.13 1470 1017.29 1462.03 1017.29C1453.08 1017.29 1445.88 1013.77 1440.45 1006.74C1435.05 999.664 1432.36 989.844 1432.36 977.281ZM1452.68 978.758C1452.68 985.883 1453.92 991.344 1456.41 995.141C1458.89 998.938 1462.5 1000.84 1467.23 1000.84C1473.52 1000.84 1477.95 998.188 1480.52 992.891V962.867C1477.99 957.571 1473.61 954.922 1467.37 954.922C1457.58 954.922 1452.68 962.867 1452.68 978.758ZM1551.68 1017.29C1540.52 1017.29 1531.43 1013.87 1524.4 1007.02C1517.41 1000.18 1513.92 991.063 1513.92 979.672V977.703C1513.92 970.063 1515.4 963.242 1518.35 957.242C1521.3 951.196 1525.48 946.555 1530.87 943.321C1536.3 940.039 1542.49 938.399 1549.43 938.399C1559.84 938.399 1568.02 941.68 1573.97 948.242C1579.97 954.805 1582.97 964.11 1582.97 976.156V984.453H1534.52C1535.18 989.422 1537.15 993.406 1540.43 996.406C1543.76 999.406 1547.95 1000.91 1553.02 1000.91C1560.84 1000.91 1566.96 998.071 1571.37 992.399L1581.35 1003.58C1578.3 1007.89 1574.18 1011.27 1568.98 1013.7C1563.77 1016.09 1558.01 1017.29 1551.68 1017.29ZM1549.36 954.852C1545.33 954.852 1542.05 956.211 1539.52 958.93C1537.03 961.649 1535.44 965.539 1534.73 970.602H1563V968.985C1562.91 964.485 1561.69 961.016 1559.34 958.578C1557 956.094 1553.67 954.852 1549.36 954.852Z" fill="#2F2E41"/>
<defs>
<clipPath id="clip0">
<rect width="1919.9" height="881.883" fill="white"/>
</clipPath>
</defs>
</svg>
