<svg width="806" height="499" viewBox="0 0 806 499" fill="none" xmlns="http://www.w3.org/2000/svg">
<g clip-path="url(#clip0)">
<path d="M402.98 0C181.471 0 1.70948 174.772 -3.05176e-05 391H805.96C804.25 174.772 624.489 0 402.98 0Z" fill="#2F2E41"/>
<path d="M382.164 44.731C384.359 44.731 386.139 42.9908 386.139 40.8443C386.139 38.6977 384.359 36.9576 382.164 36.9576C379.97 36.9576 378.19 38.6977 378.19 40.8443C378.19 42.9908 379.97 44.731 382.164 44.731Z" fill="#F2F2F2"/>
<path d="M257.37 170.659C258.248 170.659 258.959 169.963 258.959 169.105C258.959 168.246 258.248 167.55 257.37 167.55C256.492 167.55 255.78 168.246 255.78 169.105C255.78 169.963 256.492 170.659 257.37 170.659Z" fill="#F2F2F2"/>
<path d="M491.857 243.729C492.735 243.729 493.447 243.033 493.447 242.174C493.447 241.316 492.735 240.62 491.857 240.62C490.979 240.62 490.267 241.316 490.267 242.174C490.267 243.033 490.979 243.729 491.857 243.729Z" fill="#F2F2F2"/>
<path d="M77.7286 224.296C78.6066 224.296 79.3183 223.6 79.3183 222.741C79.3183 221.882 78.6066 221.186 77.7286 221.186C76.8506 221.186 76.1388 221.882 76.1388 222.741C76.1388 223.6 76.8506 224.296 77.7286 224.296Z" fill="#F2F2F2"/>
<path d="M697.729 169.105C698.607 169.105 699.318 168.409 699.318 167.55C699.318 166.691 698.607 165.995 697.729 165.995C696.851 165.995 696.139 166.691 696.139 167.55C696.139 168.409 696.851 169.105 697.729 169.105Z" fill="#F2F2F2"/>
<path d="M187.421 185.429C188.299 185.429 189.011 184.733 189.011 183.874C189.011 183.016 188.299 182.319 187.421 182.319C186.543 182.319 185.831 183.016 185.831 183.874C185.831 184.733 186.543 185.429 187.421 185.429Z" fill="#F2F2F2"/>
<path d="M448.139 154.335C449.017 154.335 449.729 153.639 449.729 152.781C449.729 151.922 449.017 151.226 448.139 151.226C447.261 151.226 446.549 151.922 446.549 152.781C446.549 153.639 447.261 154.335 448.139 154.335Z" fill="#F2F2F2"/>
<path d="M500.6 42.399C501.478 42.399 502.19 41.7029 502.19 40.8443C502.19 39.9857 501.478 39.2896 500.6 39.2896C499.722 39.2896 499.011 39.9857 499.011 40.8443C499.011 41.7029 499.722 42.399 500.6 42.399Z" fill="#F2F2F2"/>
<path d="M169.934 224.296H168.344V225.073H169.934V224.296Z" fill="#F2F2F2"/>
<path d="M216.831 105.363H215.241V106.141H216.831V105.363Z" fill="#F2F2F2"/>
<path d="M331.293 193.979H329.703V194.757H331.293V193.979Z" fill="#F2F2F2"/>
<path d="M634.934 228.182H633.344V228.96H634.934V228.182Z" fill="#F2F2F2"/>
<path d="M540.344 109.25H538.754V110.027H540.344V109.25Z" fill="#F2F2F2"/>
<path d="M181.714 282.702H178.917V390.754H181.714V282.702Z" fill="#3F3D56"/>
<path d="M207.529 263.824C207.707 301.607 180.525 332.359 180.525 332.359C180.525 332.359 153.054 301.853 152.876 264.07C152.698 226.287 179.881 195.534 179.881 195.534C179.881 195.534 207.351 226.04 207.529 263.824Z" fill="#3F3D56"/>
<path d="M147.188 250.669H143.562V390.754H147.188V250.669Z" fill="#3F3D56"/>
<path d="M180.656 235.873C180.887 284.857 145.647 324.727 145.647 324.727C145.647 324.727 110.032 285.177 109.801 236.193C109.57 187.209 144.811 147.339 144.811 147.339C144.811 147.339 180.425 186.889 180.656 235.873Z" fill="#3F3D56"/>
<path d="M568.817 282.702H566.02V390.754H568.817V282.702Z" fill="#2ECC71"/>
<path d="M594.632 296.472C594.81 334.255 567.628 365.007 567.628 365.007C567.628 365.007 540.157 334.501 539.979 296.718C539.801 258.935 566.983 228.182 566.983 228.182C566.983 228.182 594.454 258.688 594.632 296.472Z" fill="#3F3D56"/>
<path d="M114.945 282.702H112.148V390.754H114.945V282.702Z" fill="#3F3D56"/>
<path d="M140.76 263.824C140.938 301.607 113.756 332.359 113.756 332.359C113.756 332.359 86.2853 301.853 86.1072 264.07C85.9291 226.287 113.111 195.534 113.111 195.534C113.111 195.534 140.582 226.04 140.76 263.824Z" fill="#3F3D56"/>
<path d="M361.355 282.702H358.558V390.754H361.355V282.702Z" fill="#3F3D56"/>
<path d="M387.17 263.824C387.349 301.607 360.166 332.359 360.166 332.359C360.166 332.359 332.696 301.853 332.517 264.07C332.339 226.287 359.522 195.534 359.522 195.534C359.522 195.534 386.992 226.04 387.17 263.824Z" fill="#3F3D56"/>
<path d="M326.829 250.669H323.203V390.754H326.829V250.669Z" fill="#3F3D56"/>
<path d="M360.297 235.873C360.528 284.857 325.288 324.727 325.288 324.727C325.288 324.727 289.673 285.177 289.442 236.193C289.211 187.209 324.452 147.339 324.452 147.339C324.452 147.339 360.066 186.889 360.297 235.873Z" fill="#3F3D56"/>
<path d="M294.586 282.702H291.789V390.754H294.586V282.702Z" fill="#3F3D56"/>
<path d="M320.401 263.824C320.579 301.607 293.397 332.359 293.397 332.359C293.397 332.359 265.926 301.853 265.748 264.07C265.57 226.287 292.752 195.534 292.752 195.534C292.752 195.534 320.223 226.04 320.401 263.824Z" fill="#3F3D56"/>
<path d="M586.903 333.021L540.162 290.992C540.036 292.88 539.97 294.789 539.979 296.718C540.157 334.501 567.628 365.007 567.628 365.007C575.626 355.33 582.121 344.552 586.903 333.021Z" fill="#2ECC71"/>
<path d="M238.973 381.115C240.575 386.905 246.06 390.49 246.06 390.49C246.06 390.49 248.949 384.689 247.348 378.9C245.746 373.111 240.261 369.525 240.261 369.525C240.261 369.525 237.372 375.326 238.973 381.115Z" fill="#3F3D56"/>
<path d="M241.326 379.871C245.721 384.055 246.258 390.486 246.258 390.486C246.258 390.486 239.67 390.134 235.275 385.95C230.881 381.767 230.344 375.336 230.344 375.336C230.344 375.336 236.932 375.688 241.326 379.871Z" fill="#3F3D56"/>
<path d="M464.717 381.115C466.318 386.905 471.804 390.49 471.804 390.49C471.804 390.49 474.693 384.689 473.091 378.9C471.49 373.111 466.004 369.525 466.004 369.525C466.004 369.525 463.115 375.326 464.717 381.115Z" fill="#2ECC71"/>
<path d="M467.07 379.871C471.465 384.055 472.001 390.486 472.001 390.486C472.001 390.486 465.413 390.134 461.019 385.95C456.624 381.767 456.088 375.336 456.088 375.336C456.088 375.336 462.676 375.688 467.07 379.871Z" fill="#2ECC71"/>
<path d="M60.9219 381.115C62.5234 386.905 68.0088 390.49 68.0088 390.49C68.0088 390.49 70.8977 384.689 69.2962 378.9C67.6948 373.111 62.2094 369.525 62.2094 369.525C62.2094 369.525 59.3205 375.326 60.9219 381.115Z" fill="#3F3D56"/>
<path d="M63.2752 379.871C67.6696 384.055 68.2064 390.486 68.2064 390.486C68.2064 390.486 61.6183 390.134 57.2239 385.95C52.8294 381.767 52.2927 375.336 52.2927 375.336C52.2927 375.336 58.8807 375.688 63.2752 379.871Z" fill="#3F3D56"/>
<path d="M307.88 171.564L384.593 284.792C386.307 277.928 387.172 270.889 387.17 263.823C387.084 245.399 380.507 228.707 373.79 216.437L370.241 217.3L373.579 216.054C369.624 208.762 364.914 201.885 359.522 195.534C359.522 195.534 357.564 197.75 354.705 201.718C344.626 169.747 324.452 147.339 324.452 147.339C318.155 154.882 312.606 162.993 307.88 171.564Z" fill="#2ECC71"/>
<path d="M703.971 347.328C704.103 347.305 704.233 347.27 704.363 347.238C703.945 347.187 703.52 347.227 703.119 347.355C703.403 347.38 703.689 347.371 703.971 347.328Z" fill="#FF6584"/>
<path d="M712.737 384.431C712.776 384.466 712.815 384.502 712.855 384.536C712.826 384.495 712.793 384.454 712.767 384.412L712.737 384.431Z" fill="#FF6584"/>
<path opacity="0.1" d="M456.835 216.066L456.834 216.065L439.491 200.47L439.335 200.508L432.39 194.334L432.055 194.238L432.417 194.104L358.558 127.694L287.229 63.5565L250.884 82.4101L247.911 83.0537L291.468 147.339L456.31 390.646H650.99L456.835 216.066Z" fill="#F2F2F2"/>
<path d="M266.113 92.9258C277.966 92.9258 287.575 83.5291 287.575 71.9377C287.575 60.3464 277.966 50.9497 266.113 50.9497C254.26 50.9497 244.652 60.3464 244.652 71.9377C244.652 83.5291 254.26 92.9258 266.113 92.9258Z" fill="#F2F2F2"/>
</g>
<path d="M174.074 443.961L174.285 448.742C177.191 445.086 180.988 443.258 185.676 443.258C193.715 443.258 197.77 447.793 197.84 456.863V482H191.336V456.828C191.312 454.086 190.68 452.059 189.438 450.746C188.219 449.434 186.309 448.777 183.707 448.777C181.598 448.777 179.746 449.34 178.152 450.465C176.559 451.59 175.316 453.066 174.426 454.895V482H167.922V443.961H174.074ZM206.102 462.664C206.102 456.734 207.473 452.023 210.215 448.531C212.957 445.016 216.59 443.258 221.113 443.258C225.754 443.258 229.375 444.898 231.977 448.18L232.293 443.961H238.234V481.086C238.234 486.008 236.77 489.887 233.84 492.723C230.934 495.559 227.02 496.977 222.098 496.977C219.355 496.977 216.672 496.391 214.047 495.219C211.422 494.047 209.418 492.441 208.035 490.402L211.41 486.5C214.199 489.945 217.609 491.668 221.641 491.668C224.805 491.668 227.266 490.777 229.023 488.996C230.805 487.215 231.695 484.707 231.695 481.473V478.203C229.094 481.203 225.543 482.703 221.043 482.703C216.59 482.703 212.98 480.91 210.215 477.324C207.473 473.738 206.102 468.852 206.102 462.664ZM212.641 463.402C212.641 467.691 213.52 471.066 215.277 473.527C217.035 475.965 219.496 477.184 222.66 477.184C226.762 477.184 229.773 475.32 231.695 471.594V454.227C229.703 450.594 226.715 448.777 222.73 448.777C219.566 448.777 217.094 450.008 215.312 452.469C213.531 454.93 212.641 458.574 212.641 463.402ZM260.84 457.848L269.277 443.961H276.871L264.426 462.77L277.258 482H269.734L260.945 467.762L252.156 482H244.598L257.43 462.77L244.984 443.961H252.508L260.84 457.848ZM297.332 462.91H280.176V457.602H297.332V462.91ZM302.113 462.664C302.113 456.828 303.496 452.141 306.262 448.602C309.027 445.039 312.648 443.258 317.125 443.258C321.578 443.258 325.105 444.781 327.707 447.828V428H334.211V482H328.234L327.918 477.922C325.316 481.109 321.695 482.703 317.055 482.703C312.648 482.703 309.051 480.898 306.262 477.289C303.496 473.68 302.113 468.969 302.113 463.156V462.664ZM308.617 463.402C308.617 467.715 309.508 471.09 311.289 473.527C313.07 475.965 315.531 477.184 318.672 477.184C322.797 477.184 325.809 475.332 327.707 471.629V454.156C325.762 450.57 322.773 448.777 318.742 448.777C315.555 448.777 313.07 450.008 311.289 452.469C309.508 454.93 308.617 458.574 308.617 463.402ZM367.82 482C367.445 481.25 367.141 479.914 366.906 477.992C363.883 481.133 360.273 482.703 356.078 482.703C352.328 482.703 349.246 481.648 346.832 479.539C344.441 477.406 343.246 474.711 343.246 471.453C343.246 467.492 344.746 464.422 347.746 462.242C350.77 460.039 355.012 458.938 360.473 458.938H366.801V455.949C366.801 453.676 366.121 451.871 364.762 450.535C363.402 449.176 361.398 448.496 358.75 448.496C356.43 448.496 354.484 449.082 352.914 450.254C351.344 451.426 350.559 452.844 350.559 454.508H344.02C344.02 452.609 344.688 450.781 346.023 449.023C347.383 447.242 349.211 445.836 351.508 444.805C353.828 443.773 356.371 443.258 359.137 443.258C363.52 443.258 366.953 444.359 369.438 446.562C371.922 448.742 373.211 451.754 373.305 455.598V473.105C373.305 476.598 373.75 479.375 374.641 481.438V482H367.82ZM357.027 477.043C359.066 477.043 361 476.516 362.828 475.461C364.656 474.406 365.98 473.035 366.801 471.348V463.543H361.703C353.734 463.543 349.75 465.875 349.75 470.539C349.75 472.578 350.43 474.172 351.789 475.32C353.148 476.469 354.895 477.043 357.027 477.043ZM401.887 449.797C400.902 449.633 399.836 449.551 398.688 449.551C394.422 449.551 391.527 451.367 390.004 455V482H383.5V443.961H389.828L389.934 448.355C392.066 444.957 395.09 443.258 399.004 443.258C400.27 443.258 401.23 443.422 401.887 443.75V449.797ZM418.516 464.387L414.438 468.641V482H407.934V428H414.438V460.66L417.918 456.477L429.766 443.961H437.676L422.875 459.852L439.398 482H431.77L418.516 464.387ZM457.926 462.91H440.77V457.602H457.926V462.91ZM473.113 434.75V443.961H480.215V448.988H473.113V472.578C473.113 474.102 473.43 475.25 474.062 476.023C474.695 476.773 475.773 477.148 477.297 477.148C478.047 477.148 479.078 477.008 480.391 476.727V482C478.68 482.469 477.016 482.703 475.398 482.703C472.492 482.703 470.301 481.824 468.824 480.066C467.348 478.309 466.609 475.812 466.609 472.578V448.988H459.684V443.961H466.609V434.75H473.113ZM494.348 448.566C497.23 445.027 500.98 443.258 505.598 443.258C513.637 443.258 517.691 447.793 517.762 456.863V482H511.258V456.828C511.234 454.086 510.602 452.059 509.359 450.746C508.141 449.434 506.23 448.777 503.629 448.777C501.52 448.777 499.668 449.34 498.074 450.465C496.48 451.59 495.238 453.066 494.348 454.895V482H487.844V428H494.348V448.566ZM543.285 482.703C538.129 482.703 533.934 481.016 530.699 477.641C527.465 474.242 525.848 469.707 525.848 464.035V462.84C525.848 459.066 526.562 455.703 527.992 452.75C529.445 449.773 531.461 447.453 534.039 445.789C536.641 444.102 539.453 443.258 542.477 443.258C547.422 443.258 551.266 444.887 554.008 448.145C556.75 451.402 558.121 456.066 558.121 462.137V464.844H532.352C532.445 468.594 533.535 471.629 535.621 473.949C537.73 476.246 540.402 477.395 543.637 477.395C545.934 477.395 547.879 476.926 549.473 475.988C551.066 475.051 552.461 473.809 553.656 472.262L557.629 475.355C554.441 480.254 549.66 482.703 543.285 482.703ZM542.477 448.602C539.852 448.602 537.648 449.562 535.867 451.484C534.086 453.383 532.984 456.055 532.562 459.5H551.617V459.008C551.43 455.703 550.539 453.148 548.945 451.344C547.352 449.516 545.195 448.602 542.477 448.602ZM571.797 443.961L571.973 448.18C574.762 444.898 578.523 443.258 583.258 443.258C588.578 443.258 592.199 445.297 594.121 449.375C595.387 447.547 597.027 446.07 599.043 444.945C601.082 443.82 603.484 443.258 606.25 443.258C614.594 443.258 618.836 447.676 618.977 456.512V482H612.473V456.898C612.473 454.18 611.852 452.152 610.609 450.816C609.367 449.457 607.281 448.777 604.352 448.777C601.938 448.777 599.934 449.504 598.34 450.957C596.746 452.387 595.82 454.32 595.562 456.758V482H589.023V457.074C589.023 451.543 586.316 448.777 580.902 448.777C576.637 448.777 573.719 450.594 572.148 454.227V482H565.645V443.961H571.797ZM644.605 482.703C639.449 482.703 635.254 481.016 632.02 477.641C628.785 474.242 627.168 469.707 627.168 464.035V462.84C627.168 459.066 627.883 455.703 629.312 452.75C630.766 449.773 632.781 447.453 635.359 445.789C637.961 444.102 640.773 443.258 643.797 443.258C648.742 443.258 652.586 444.887 655.328 448.145C658.07 451.402 659.441 456.066 659.441 462.137V464.844H633.672C633.766 468.594 634.855 471.629 636.941 473.949C639.051 476.246 641.723 477.395 644.957 477.395C647.254 477.395 649.199 476.926 650.793 475.988C652.387 475.051 653.781 473.809 654.977 472.262L658.949 475.355C655.762 480.254 650.98 482.703 644.605 482.703ZM643.797 448.602C641.172 448.602 638.969 449.562 637.188 451.484C635.406 453.383 634.305 456.055 633.883 459.5H652.938V459.008C652.75 455.703 651.859 453.148 650.266 451.344C648.672 449.516 646.516 448.602 643.797 448.602Z" fill="#2F2E41"/>
<defs>
<clipPath id="clip0">
<rect width="806" height="391" fill="white"/>
</clipPath>
</defs>
</svg>
