<svg width="806" height="499" viewBox="0 0 806 499" fill="none" xmlns="http://www.w3.org/2000/svg">
<g clip-path="url(#clip0)">
<path d="M402.98 0C181.471 0 1.70948 174.772 -3.05176e-05 391H805.96C804.25 174.772 624.489 0 402.98 0Z" fill="#2F2E41"/>
<path d="M382.164 44.731C384.359 44.731 386.139 42.9908 386.139 40.8443C386.139 38.6977 384.359 36.9576 382.164 36.9576C379.97 36.9576 378.19 38.6977 378.19 40.8443C378.19 42.9908 379.97 44.731 382.164 44.731Z" fill="#F2F2F2"/>
<path d="M257.37 170.659C258.248 170.659 258.959 169.963 258.959 169.105C258.959 168.246 258.248 167.55 257.37 167.55C256.492 167.55 255.78 168.246 255.78 169.105C255.78 169.963 256.492 170.659 257.37 170.659Z" fill="#F2F2F2"/>
<path d="M491.857 243.729C492.735 243.729 493.447 243.033 493.447 242.174C493.447 241.316 492.735 240.62 491.857 240.62C490.979 240.62 490.267 241.316 490.267 242.174C490.267 243.033 490.979 243.729 491.857 243.729Z" fill="#F2F2F2"/>
<path d="M77.7286 224.296C78.6066 224.296 79.3183 223.6 79.3183 222.741C79.3183 221.882 78.6066 221.186 77.7286 221.186C76.8506 221.186 76.1388 221.882 76.1388 222.741C76.1388 223.6 76.8506 224.296 77.7286 224.296Z" fill="#F2F2F2"/>
<path d="M697.729 169.105C698.607 169.105 699.318 168.409 699.318 167.55C699.318 166.691 698.607 165.995 697.729 165.995C696.851 165.995 696.139 166.691 696.139 167.55C696.139 168.409 696.851 169.105 697.729 169.105Z" fill="#F2F2F2"/>
<path d="M187.421 185.429C188.299 185.429 189.011 184.733 189.011 183.874C189.011 183.016 188.299 182.319 187.421 182.319C186.543 182.319 185.831 183.016 185.831 183.874C185.831 184.733 186.543 185.429 187.421 185.429Z" fill="#F2F2F2"/>
<path d="M448.139 154.335C449.017 154.335 449.729 153.639 449.729 152.781C449.729 151.922 449.017 151.226 448.139 151.226C447.261 151.226 446.549 151.922 446.549 152.781C446.549 153.639 447.261 154.335 448.139 154.335Z" fill="#F2F2F2"/>
<path d="M500.6 42.399C501.478 42.399 502.19 41.7029 502.19 40.8443C502.19 39.9857 501.478 39.2896 500.6 39.2896C499.722 39.2896 499.011 39.9857 499.011 40.8443C499.011 41.7029 499.722 42.399 500.6 42.399Z" fill="#F2F2F2"/>
<path d="M169.934 224.296H168.344V225.073H169.934V224.296Z" fill="#F2F2F2"/>
<path d="M216.831 105.363H215.241V106.141H216.831V105.363Z" fill="#F2F2F2"/>
<path d="M331.293 193.979H329.703V194.757H331.293V193.979Z" fill="#F2F2F2"/>
<path d="M634.934 228.182H633.344V228.96H634.934V228.182Z" fill="#F2F2F2"/>
<path d="M540.344 109.25H538.754V110.027H540.344V109.25Z" fill="#F2F2F2"/>
<path d="M181.714 282.702H178.917V390.754H181.714V282.702Z" fill="#3F3D56"/>
<path d="M207.529 263.824C207.707 301.607 180.525 332.359 180.525 332.359C180.525 332.359 153.054 301.853 152.876 264.07C152.698 226.287 179.881 195.534 179.881 195.534C179.881 195.534 207.351 226.04 207.529 263.824Z" fill="#3F3D56"/>
<path d="M147.188 250.669H143.562V390.754H147.188V250.669Z" fill="#3F3D56"/>
<path d="M180.656 235.873C180.887 284.857 145.647 324.727 145.647 324.727C145.647 324.727 110.032 285.177 109.801 236.193C109.57 187.209 144.811 147.339 144.811 147.339C144.811 147.339 180.425 186.889 180.656 235.873Z" fill="#3F3D56"/>
<path d="M568.817 282.702H566.02V390.754H568.817V282.702Z" fill="#2ECC71"/>
<path d="M594.632 296.472C594.81 334.255 567.628 365.007 567.628 365.007C567.628 365.007 540.157 334.501 539.979 296.718C539.801 258.935 566.983 228.182 566.983 228.182C566.983 228.182 594.454 258.688 594.632 296.472Z" fill="#3F3D56"/>
<path d="M114.945 282.702H112.148V390.754H114.945V282.702Z" fill="#3F3D56"/>
<path d="M140.76 263.824C140.938 301.607 113.756 332.359 113.756 332.359C113.756 332.359 86.2853 301.853 86.1072 264.07C85.9291 226.287 113.111 195.534 113.111 195.534C113.111 195.534 140.582 226.04 140.76 263.824Z" fill="#3F3D56"/>
<path d="M361.355 282.702H358.558V390.754H361.355V282.702Z" fill="#3F3D56"/>
<path d="M387.17 263.824C387.349 301.607 360.166 332.359 360.166 332.359C360.166 332.359 332.696 301.853 332.517 264.07C332.339 226.287 359.522 195.534 359.522 195.534C359.522 195.534 386.992 226.04 387.17 263.824Z" fill="#3F3D56"/>
<path d="M326.829 250.669H323.203V390.754H326.829V250.669Z" fill="#3F3D56"/>
<path d="M360.297 235.873C360.528 284.857 325.288 324.727 325.288 324.727C325.288 324.727 289.673 285.177 289.442 236.193C289.211 187.209 324.452 147.339 324.452 147.339C324.452 147.339 360.066 186.889 360.297 235.873Z" fill="#3F3D56"/>
<path d="M294.586 282.702H291.789V390.754H294.586V282.702Z" fill="#3F3D56"/>
<path d="M320.401 263.824C320.579 301.607 293.397 332.359 293.397 332.359C293.397 332.359 265.926 301.853 265.748 264.07C265.57 226.287 292.752 195.534 292.752 195.534C292.752 195.534 320.223 226.04 320.401 263.824Z" fill="#3F3D56"/>
<path d="M586.903 333.021L540.162 290.992C540.036 292.88 539.97 294.789 539.979 296.718C540.157 334.501 567.628 365.007 567.628 365.007C575.626 355.33 582.121 344.552 586.903 333.021Z" fill="#2ECC71"/>
<path d="M238.973 381.115C240.575 386.905 246.06 390.49 246.06 390.49C246.06 390.49 248.949 384.689 247.348 378.9C245.746 373.111 240.261 369.525 240.261 369.525C240.261 369.525 237.372 375.326 238.973 381.115Z" fill="#3F3D56"/>
<path d="M241.326 379.871C245.721 384.055 246.258 390.486 246.258 390.486C246.258 390.486 239.67 390.134 235.275 385.95C230.881 381.767 230.344 375.336 230.344 375.336C230.344 375.336 236.932 375.688 241.326 379.871Z" fill="#3F3D56"/>
<path d="M464.717 381.115C466.318 386.905 471.804 390.49 471.804 390.49C471.804 390.49 474.693 384.689 473.091 378.9C471.49 373.111 466.004 369.525 466.004 369.525C466.004 369.525 463.115 375.326 464.717 381.115Z" fill="#2ECC71"/>
<path d="M467.07 379.871C471.465 384.055 472.001 390.486 472.001 390.486C472.001 390.486 465.413 390.134 461.019 385.95C456.624 381.767 456.088 375.336 456.088 375.336C456.088 375.336 462.676 375.688 467.07 379.871Z" fill="#2ECC71"/>
<path d="M60.9219 381.115C62.5234 386.905 68.0088 390.49 68.0088 390.49C68.0088 390.49 70.8977 384.689 69.2962 378.9C67.6948 373.111 62.2094 369.525 62.2094 369.525C62.2094 369.525 59.3205 375.326 60.9219 381.115Z" fill="#3F3D56"/>
<path d="M63.2752 379.871C67.6696 384.055 68.2064 390.486 68.2064 390.486C68.2064 390.486 61.6183 390.134 57.2239 385.95C52.8294 381.767 52.2927 375.336 52.2927 375.336C52.2927 375.336 58.8807 375.688 63.2752 379.871Z" fill="#3F3D56"/>
<path d="M307.88 171.564L384.593 284.792C386.307 277.928 387.172 270.889 387.17 263.823C387.084 245.399 380.507 228.707 373.79 216.437L370.241 217.3L373.579 216.054C369.624 208.762 364.914 201.885 359.522 195.534C359.522 195.534 357.564 197.75 354.705 201.718C344.626 169.747 324.452 147.339 324.452 147.339C318.155 154.882 312.606 162.993 307.88 171.564Z" fill="#2ECC71"/>
<path d="M703.971 347.328C704.103 347.305 704.233 347.27 704.363 347.238C703.945 347.187 703.52 347.227 703.119 347.355C703.403 347.38 703.689 347.371 703.971 347.328Z" fill="#FF6584"/>
<path d="M712.737 384.431C712.776 384.466 712.815 384.502 712.855 384.536C712.826 384.495 712.793 384.454 712.767 384.412L712.737 384.431Z" fill="#FF6584"/>
<path opacity="0.1" d="M456.835 216.066L456.834 216.065L439.491 200.47L439.335 200.508L432.39 194.334L432.055 194.238L432.417 194.104L358.558 127.694L287.229 63.5565L250.884 82.4101L247.911 83.0537L291.468 147.339L456.31 390.646H650.99L456.835 216.066Z" fill="#F2F2F2"/>
<path d="M266.113 92.9258C277.966 92.9258 287.575 83.5291 287.575 71.9377C287.575 60.3464 277.966 50.9497 266.113 50.9497C254.26 50.9497 244.652 60.3464 244.652 71.9377C244.652 83.5291 254.26 92.9258 266.113 92.9258Z" fill="#F2F2F2"/>
</g>
<path d="M129.406 469C129.031 468.25 128.727 466.914 128.492 464.992C125.469 468.133 121.859 469.703 117.664 469.703C113.914 469.703 110.832 468.648 108.418 466.539C106.027 464.406 104.832 461.711 104.832 458.453C104.832 454.492 106.332 451.422 109.332 449.242C112.355 447.039 116.598 445.938 122.059 445.938H128.387V442.949C128.387 440.676 127.707 438.871 126.348 437.535C124.988 436.176 122.984 435.496 120.336 435.496C118.016 435.496 116.07 436.082 114.5 437.254C112.93 438.426 112.145 439.844 112.145 441.508H105.605C105.605 439.609 106.273 437.781 107.609 436.023C108.969 434.242 110.797 432.836 113.094 431.805C115.414 430.773 117.957 430.258 120.723 430.258C125.105 430.258 128.539 431.359 131.023 433.562C133.508 435.742 134.797 438.754 134.891 442.598V460.105C134.891 463.598 135.336 466.375 136.227 468.438V469H129.406ZM118.613 464.043C120.652 464.043 122.586 463.516 124.414 462.461C126.242 461.406 127.566 460.035 128.387 458.348V450.543H123.289C115.32 450.543 111.336 452.875 111.336 457.539C111.336 459.578 112.016 461.172 113.375 462.32C114.734 463.469 116.48 464.043 118.613 464.043ZM151.238 430.961L151.449 435.742C154.355 432.086 158.152 430.258 162.84 430.258C170.879 430.258 174.934 434.793 175.004 443.863V469H168.5V443.828C168.477 441.086 167.844 439.059 166.602 437.746C165.383 436.434 163.473 435.777 160.871 435.777C158.762 435.777 156.91 436.34 155.316 437.465C153.723 438.59 152.48 440.066 151.59 441.895V469H145.086V430.961H151.238ZM183.266 449.664C183.266 443.734 184.637 439.023 187.379 435.531C190.121 432.016 193.754 430.258 198.277 430.258C202.918 430.258 206.539 431.898 209.141 435.18L209.457 430.961H215.398V468.086C215.398 473.008 213.934 476.887 211.004 479.723C208.098 482.559 204.184 483.977 199.262 483.977C196.52 483.977 193.836 483.391 191.211 482.219C188.586 481.047 186.582 479.441 185.199 477.402L188.574 473.5C191.363 476.945 194.773 478.668 198.805 478.668C201.969 478.668 204.43 477.777 206.188 475.996C207.969 474.215 208.859 471.707 208.859 468.473V465.203C206.258 468.203 202.707 469.703 198.207 469.703C193.754 469.703 190.145 467.91 187.379 464.324C184.637 460.738 183.266 455.852 183.266 449.664ZM189.805 450.402C189.805 454.691 190.684 458.066 192.441 460.527C194.199 462.965 196.66 464.184 199.824 464.184C203.926 464.184 206.938 462.32 208.859 458.594V441.227C206.867 437.594 203.879 435.777 199.895 435.777C196.73 435.777 194.258 437.008 192.477 439.469C190.695 441.93 189.805 445.574 189.805 450.402ZM248.727 465.238C246.195 468.215 242.48 469.703 237.582 469.703C233.527 469.703 230.434 468.531 228.301 466.188C226.191 463.82 225.125 460.328 225.102 455.711V430.961H231.605V455.535C231.605 461.301 233.949 464.184 238.637 464.184C243.605 464.184 246.91 462.332 248.551 458.629V430.961H255.055V469H248.867L248.727 465.238ZM272.035 469H265.531V415H272.035V469ZM305.961 469C305.586 468.25 305.281 466.914 305.047 464.992C302.023 468.133 298.414 469.703 294.219 469.703C290.469 469.703 287.387 468.648 284.973 466.539C282.582 464.406 281.387 461.711 281.387 458.453C281.387 454.492 282.887 451.422 285.887 449.242C288.91 447.039 293.152 445.938 298.613 445.938H304.941V442.949C304.941 440.676 304.262 438.871 302.902 437.535C301.543 436.176 299.539 435.496 296.891 435.496C294.57 435.496 292.625 436.082 291.055 437.254C289.484 438.426 288.699 439.844 288.699 441.508H282.16C282.16 439.609 282.828 437.781 284.164 436.023C285.523 434.242 287.352 432.836 289.648 431.805C291.969 430.773 294.512 430.258 297.277 430.258C301.66 430.258 305.094 431.359 307.578 433.562C310.062 435.742 311.352 438.754 311.445 442.598V460.105C311.445 463.598 311.891 466.375 312.781 468.438V469H305.961ZM295.168 464.043C297.207 464.043 299.141 463.516 300.969 462.461C302.797 461.406 304.121 460.035 304.941 458.348V450.543H299.844C291.875 450.543 287.891 452.875 287.891 457.539C287.891 459.578 288.57 461.172 289.93 462.32C291.289 463.469 293.035 464.043 295.168 464.043ZM340.027 436.797C339.043 436.633 337.977 436.551 336.828 436.551C332.562 436.551 329.668 438.367 328.145 442V469H321.641V430.961H327.969L328.074 435.355C330.207 431.957 333.23 430.258 337.145 430.258C338.41 430.258 339.371 430.422 340.027 430.75V436.797ZM359.574 449.91H342.418V444.602H359.574V449.91ZM364.355 449.664C364.355 443.828 365.738 439.141 368.504 435.602C371.27 432.039 374.891 430.258 379.367 430.258C383.82 430.258 387.348 431.781 389.949 434.828V415H396.453V469H390.477L390.16 464.922C387.559 468.109 383.938 469.703 379.297 469.703C374.891 469.703 371.293 467.898 368.504 464.289C365.738 460.68 364.355 455.969 364.355 450.156V449.664ZM370.859 450.402C370.859 454.715 371.75 458.09 373.531 460.527C375.312 462.965 377.773 464.184 380.914 464.184C385.039 464.184 388.051 462.332 389.949 458.629V441.156C388.004 437.57 385.016 435.777 380.984 435.777C377.797 435.777 375.312 437.008 373.531 439.469C371.75 441.93 370.859 445.574 370.859 450.402ZM430.062 469C429.688 468.25 429.383 466.914 429.148 464.992C426.125 468.133 422.516 469.703 418.32 469.703C414.57 469.703 411.488 468.648 409.074 466.539C406.684 464.406 405.488 461.711 405.488 458.453C405.488 454.492 406.988 451.422 409.988 449.242C413.012 447.039 417.254 445.938 422.715 445.938H429.043V442.949C429.043 440.676 428.363 438.871 427.004 437.535C425.645 436.176 423.641 435.496 420.992 435.496C418.672 435.496 416.727 436.082 415.156 437.254C413.586 438.426 412.801 439.844 412.801 441.508H406.262C406.262 439.609 406.93 437.781 408.266 436.023C409.625 434.242 411.453 432.836 413.75 431.805C416.07 430.773 418.613 430.258 421.379 430.258C425.762 430.258 429.195 431.359 431.68 433.562C434.164 435.742 435.453 438.754 435.547 442.598V460.105C435.547 463.598 435.992 466.375 436.883 468.438V469H430.062ZM419.27 464.043C421.309 464.043 423.242 463.516 425.07 462.461C426.898 461.406 428.223 460.035 429.043 458.348V450.543H423.945C415.977 450.543 411.992 452.875 411.992 457.539C411.992 459.578 412.672 461.172 414.031 462.32C415.391 463.469 417.137 464.043 419.27 464.043ZM464.129 436.797C463.145 436.633 462.078 436.551 460.93 436.551C456.664 436.551 453.77 438.367 452.246 442V469H445.742V430.961H452.07L452.176 435.355C454.309 431.957 457.332 430.258 461.246 430.258C462.512 430.258 463.473 430.422 464.129 430.75V436.797ZM480.758 451.387L476.68 455.641V469H470.176V415H476.68V447.66L480.16 443.477L492.008 430.961H499.918L485.117 446.852L501.641 469H494.012L480.758 451.387ZM520.168 449.91H503.012V444.602H520.168V449.91ZM532.648 430.961L532.824 435.18C535.613 431.898 539.375 430.258 544.109 430.258C549.43 430.258 553.051 432.297 554.973 436.375C556.238 434.547 557.879 433.07 559.895 431.945C561.934 430.82 564.336 430.258 567.102 430.258C575.445 430.258 579.688 434.676 579.828 443.512V469H573.324V443.898C573.324 441.18 572.703 439.152 571.461 437.816C570.219 436.457 568.133 435.777 565.203 435.777C562.789 435.777 560.785 436.504 559.191 437.957C557.598 439.387 556.672 441.32 556.414 443.758V469H549.875V444.074C549.875 438.543 547.168 435.777 541.754 435.777C537.488 435.777 534.57 437.594 533 441.227V469H526.496V430.961H532.648ZM587.949 449.629C587.949 445.902 588.676 442.551 590.129 439.574C591.605 436.598 593.645 434.301 596.246 432.684C598.871 431.066 601.859 430.258 605.211 430.258C610.391 430.258 614.574 432.051 617.762 435.637C620.973 439.223 622.578 443.992 622.578 449.945V450.402C622.578 454.105 621.863 457.434 620.434 460.387C619.027 463.316 617 465.602 614.352 467.242C611.727 468.883 608.703 469.703 605.281 469.703C600.125 469.703 595.941 467.91 592.73 464.324C589.543 460.738 587.949 455.992 587.949 450.086V449.629ZM594.488 450.402C594.488 454.621 595.461 458.008 597.406 460.562C599.375 463.117 602 464.395 605.281 464.395C608.586 464.395 611.211 463.105 613.156 460.527C615.102 457.926 616.074 454.293 616.074 449.629C616.074 445.457 615.078 442.082 613.086 439.504C611.117 436.902 608.492 435.602 605.211 435.602C602 435.602 599.41 436.879 597.441 439.434C595.473 441.988 594.488 445.645 594.488 450.402ZM629.152 449.664C629.152 443.828 630.535 439.141 633.301 435.602C636.066 432.039 639.688 430.258 644.164 430.258C648.617 430.258 652.145 431.781 654.746 434.828V415H661.25V469H655.273L654.957 464.922C652.355 468.109 648.734 469.703 644.094 469.703C639.688 469.703 636.09 467.898 633.301 464.289C630.535 460.68 629.152 455.969 629.152 450.156V449.664ZM635.656 450.402C635.656 454.715 636.547 458.09 638.328 460.527C640.109 462.965 642.57 464.184 645.711 464.184C649.836 464.184 652.848 462.332 654.746 458.629V441.156C652.801 437.57 649.812 435.777 645.781 435.777C642.594 435.777 640.109 437.008 638.328 439.469C636.547 441.93 635.656 445.574 635.656 450.402ZM687.16 469.703C682.004 469.703 677.809 468.016 674.574 464.641C671.34 461.242 669.723 456.707 669.723 451.035V449.84C669.723 446.066 670.438 442.703 671.867 439.75C673.32 436.773 675.336 434.453 677.914 432.789C680.516 431.102 683.328 430.258 686.352 430.258C691.297 430.258 695.141 431.887 697.883 435.145C700.625 438.402 701.996 443.066 701.996 449.137V451.844H676.227C676.32 455.594 677.41 458.629 679.496 460.949C681.605 463.246 684.277 464.395 687.512 464.395C689.809 464.395 691.754 463.926 693.348 462.988C694.941 462.051 696.336 460.809 697.531 459.262L701.504 462.355C698.316 467.254 693.535 469.703 687.16 469.703ZM686.352 435.602C683.727 435.602 681.523 436.562 679.742 438.484C677.961 440.383 676.859 443.055 676.438 446.5H695.492V446.008C695.305 442.703 694.414 440.148 692.82 438.344C691.227 436.516 689.07 435.602 686.352 435.602Z" fill="#2F2E41"/>
<defs>
<clipPath id="clip0">
<rect width="806" height="391" fill="white"/>
</clipPath>
</defs>
</svg>
