<svg width="1920" height="1080" viewBox="0 0 1920 1080" fill="none" xmlns="http://www.w3.org/2000/svg">
<g clip-path="url(#clip0)">
<path d="M954.591 -1.58809C-853.859 -334.323 4.07214 383.834 -0.000134815 858.715H1919.9C1915.83 383.834 2600.79 -470.117 954.591 -1.58809Z" fill="#2F2E41"/>
<path d="M910.367 98.2384C915.596 98.2384 919.834 94.4167 919.834 89.7024C919.834 84.9882 915.596 81.1665 910.367 81.1665C905.138 81.1665 900.899 84.9882 900.899 89.7024C900.899 94.4167 905.138 98.2384 910.367 98.2384Z" fill="#F2F2F2"/>
<path d="M613.089 374.803C615.18 374.803 616.876 373.274 616.876 371.388C616.876 369.503 615.18 367.974 613.089 367.974C610.997 367.974 609.302 369.503 609.302 371.388C609.302 373.274 610.997 374.803 613.089 374.803Z" fill="#F2F2F2"/>
<path d="M1171.67 535.278C1173.76 535.278 1175.46 533.749 1175.46 531.864C1175.46 529.978 1173.76 528.449 1171.67 528.449C1169.58 528.449 1167.88 529.978 1167.88 531.864C1167.88 533.749 1169.58 535.278 1171.67 535.278Z" fill="#F2F2F2"/>
<path d="M185.16 492.598C187.251 492.598 188.947 491.07 188.947 489.184C188.947 487.298 187.251 485.77 185.16 485.77C183.068 485.77 181.373 487.298 181.373 489.184C181.373 491.07 183.068 492.598 185.16 492.598Z" fill="#F2F2F2"/>
<path d="M1662.08 371.388C1664.17 371.388 1665.87 369.859 1665.87 367.974C1665.87 366.088 1664.17 364.559 1662.08 364.559C1659.99 364.559 1658.3 366.088 1658.3 367.974C1658.3 369.859 1659.99 371.388 1662.08 371.388Z" fill="#F2F2F2"/>
<path d="M1546.79 210.829C1548.88 210.829 1550.57 209.3 1550.57 207.414C1550.57 205.529 1548.88 204 1546.79 204C1544.7 204 1543 205.529 1543 207.414C1543 209.3 1544.7 210.829 1546.79 210.829Z" fill="#F2F2F2"/>
<path d="M446.462 407.239C448.553 407.239 450.249 405.71 450.249 403.825C450.249 401.939 448.553 400.41 446.462 400.41C444.37 400.41 442.675 401.939 442.675 403.825C442.675 405.71 444.37 407.239 446.462 407.239Z" fill="#F2F2F2"/>
<path d="M1067.53 338.952C1069.62 338.952 1071.31 337.423 1071.31 335.537C1071.31 333.651 1069.62 332.123 1067.53 332.123C1065.44 332.123 1063.74 333.651 1063.74 335.537C1063.74 337.423 1065.44 338.952 1067.53 338.952Z" fill="#F2F2F2"/>
<path d="M1192.5 93.1167C1194.59 93.1167 1196.28 91.588 1196.28 89.7023C1196.28 87.8166 1194.59 86.288 1192.5 86.288C1190.41 86.288 1188.71 87.8166 1188.71 89.7023C1188.71 91.588 1190.41 93.1167 1192.5 93.1167Z" fill="#F2F2F2"/>
<path d="M330.787 146.829C332.878 146.829 334.574 145.3 334.574 143.414C334.574 141.529 332.878 140 330.787 140C328.695 140 327 141.529 327 143.414C327 145.3 328.695 146.829 330.787 146.829Z" fill="#F2F2F2"/>
<path d="M404.805 492.598H401.018V494.306H404.805V492.598Z" fill="#F2F2F2"/>
<path d="M516.521 231.399H512.734V233.107H516.521V231.399Z" fill="#F2F2F2"/>
<path d="M1697.79 142H1694V143.708H1697.79V142Z" fill="#F2F2F2"/>
<path d="M789.184 426.018H785.397V427.726H789.184V426.018Z" fill="#F2F2F2"/>
<path d="M1512.5 501.134H1508.71V502.842H1512.5V501.134Z" fill="#F2F2F2"/>
<path d="M1287.17 239.935H1283.38V241.642H1287.17V239.935Z" fill="#F2F2F2"/>
<path d="M432.868 620.87H426.204V858.174H432.868V620.87Z" fill="#3F3D56"/>
<path d="M494.363 579.41C494.787 662.389 430.036 729.928 430.036 729.928C430.036 729.928 364.596 662.93 364.172 579.951C363.748 496.971 428.5 429.433 428.5 429.433C428.5 429.433 493.939 496.43 494.363 579.41Z" fill="#3F3D56"/>
<path d="M350.622 550.52H341.983V858.174H350.622V550.52Z" fill="#3F3D56"/>
<path d="M430.347 518.025C430.897 625.604 346.949 713.165 346.949 713.165C346.949 713.165 262.111 626.306 261.561 518.727C261.011 411.148 344.958 323.587 344.958 323.587C344.958 323.587 429.797 410.446 430.347 518.025Z" fill="#3F3D56"/>
<path d="M1355 620.87H1348.33V858.174H1355V620.87Z" fill="#2ECC71"/>
<path d="M1416.49 651.112C1416.92 734.091 1352.17 801.63 1352.17 801.63C1352.17 801.63 1286.73 734.632 1286.3 651.652C1285.88 568.673 1350.63 501.134 1350.63 501.134C1350.63 501.134 1416.07 568.132 1416.49 651.112Z" fill="#3F3D56"/>
<path d="M273.815 620.87H267.151V858.174H273.815V620.87Z" fill="#3F3D56"/>
<path d="M335.31 579.41C335.734 662.389 270.982 729.928 270.982 729.928C270.982 729.928 205.543 662.93 205.119 579.951C204.695 496.971 269.446 429.433 269.446 429.433C269.446 429.433 334.885 496.43 335.31 579.41Z" fill="#3F3D56"/>
<path d="M860.797 620.87H854.134V858.174H860.797V620.87Z" fill="#3F3D56"/>
<path d="M922.292 579.41C922.716 662.389 857.965 729.928 857.965 729.928C857.965 729.928 792.525 662.93 792.101 579.951C791.677 496.971 856.429 429.433 856.429 429.433C856.429 429.433 921.868 496.43 922.292 579.41Z" fill="#3F3D56"/>
<path d="M778.551 550.52H769.912V858.174H778.551V550.52Z" fill="#3F3D56"/>
<path d="M858.276 518.025C858.826 625.604 774.879 713.165 774.879 713.165C774.879 713.165 690.04 626.306 689.49 518.727C688.94 411.148 772.887 323.587 772.887 323.587C772.887 323.587 857.726 410.446 858.276 518.025Z" fill="#3F3D56"/>
<path d="M701.744 620.87H695.08V858.174H701.744V620.87Z" fill="#3F3D56"/>
<path d="M763.239 579.41C763.663 662.389 698.911 729.928 698.911 729.928C698.911 729.928 633.472 662.93 633.048 579.951C632.624 496.971 697.375 429.433 697.375 429.433C697.375 429.433 762.815 496.43 763.239 579.41Z" fill="#3F3D56"/>
<path d="M1398.08 731.381L1286.74 639.076C1286.44 643.224 1286.28 647.417 1286.3 651.652C1286.73 734.632 1352.17 801.63 1352.17 801.63C1371.22 780.376 1386.69 756.705 1398.08 731.381V731.381Z" fill="#2ECC71"/>
<path d="M569.266 837.006C573.081 849.721 586.148 857.595 586.148 857.595C586.148 857.595 593.03 844.855 589.215 832.141C585.4 819.426 572.333 811.551 572.333 811.551C572.333 811.551 565.451 824.291 569.266 837.006Z" fill="#3F3D56"/>
<path d="M574.872 834.273C585.34 843.461 586.619 857.585 586.619 857.585C586.619 857.585 570.925 856.812 560.457 847.625C549.989 838.437 548.71 824.313 548.71 824.313C548.71 824.313 564.404 825.086 574.872 834.273Z" fill="#3F3D56"/>
<path d="M1107.02 837.006C1110.83 849.721 1123.9 857.595 1123.9 857.595C1123.9 857.595 1130.78 844.855 1126.97 832.141C1123.15 819.426 1110.08 811.551 1110.08 811.551C1110.08 811.551 1103.2 824.291 1107.02 837.006Z" fill="#2ECC71"/>
<path d="M1112.62 834.273C1123.09 843.461 1124.37 857.585 1124.37 857.585C1124.37 857.585 1108.68 856.812 1098.21 847.625C1087.74 838.437 1086.46 824.313 1086.46 824.313C1086.46 824.313 1102.16 825.086 1112.62 834.273Z" fill="#2ECC71"/>
<path d="M145.124 837.006C148.939 849.721 162.006 857.595 162.006 857.595C162.006 857.595 168.888 844.855 165.073 832.141C161.258 819.426 148.191 811.551 148.191 811.551C148.191 811.551 141.309 824.291 145.124 837.006Z" fill="#3F3D56"/>
<path d="M150.73 834.273C161.198 843.461 162.477 857.585 162.477 857.585C162.477 857.585 146.783 856.812 136.315 847.625C125.847 838.437 124.568 824.313 124.568 824.313C124.568 824.313 140.262 825.086 150.73 834.273Z" fill="#3F3D56"/>
<path d="M733.411 376.789L916.152 625.461C920.234 610.387 922.296 594.926 922.292 579.41C922.085 538.946 906.418 502.287 890.418 475.34L881.965 477.234L889.916 474.499C880.494 458.483 869.273 443.381 856.428 429.433C856.428 429.433 851.766 434.298 844.955 443.013C820.946 372.799 772.887 323.587 772.887 323.587C757.887 340.152 744.669 357.966 733.411 376.789V376.789Z" fill="#2ECC71"/>
<path d="M1676.95 762.802C1677.27 762.753 1677.58 762.676 1677.89 762.604C1676.89 762.493 1675.88 762.581 1674.92 762.862C1675.6 762.917 1676.28 762.897 1676.95 762.802V762.802Z" fill="#FF6584"/>
<path d="M1697.83 844.288C1697.93 844.365 1698.02 844.445 1698.12 844.519C1698.05 844.428 1697.97 844.34 1697.91 844.245L1697.83 844.288Z" fill="#FF6584"/>
<path opacity="0.1" d="M1088.24 474.524L1088.24 474.523L1046.93 440.273L1046.56 440.357L1030.01 426.797L1029.21 426.587L1030.07 426.291L854.133 280.441L684.219 139.583L597.639 180.989L590.557 182.403L694.315 323.587L1086.99 857.936H1550.75L1088.24 474.524Z" fill="#F2F2F2"/>
<path d="M633.917 204.084C662.152 204.084 685.042 183.447 685.042 157.99C685.042 132.533 662.152 111.896 633.917 111.896C605.682 111.896 582.793 132.533 582.793 157.99C582.793 183.447 605.682 204.084 633.917 204.084Z" fill="#F2F2F2"/>
</g>
<path d="M413.18 1030.01C412.43 1028.51 411.82 1025.84 411.352 1022C405.305 1028.28 398.086 1031.42 389.695 1031.42C382.195 1031.42 376.031 1029.31 371.203 1025.09C366.422 1020.83 364.031 1015.44 364.031 1008.92C364.031 1001 367.031 994.858 373.031 990.499C379.078 986.093 387.562 983.889 398.484 983.889H411.141V977.913C411.141 973.366 409.781 969.757 407.062 967.085C404.344 964.366 400.336 963.007 395.039 963.007C390.398 963.007 386.508 964.178 383.367 966.522C380.227 968.866 378.656 971.702 378.656 975.03H365.578C365.578 971.233 366.914 967.577 369.586 964.061C372.305 960.499 375.961 957.686 380.555 955.624C385.195 953.561 390.281 952.53 395.812 952.53C404.578 952.53 411.445 954.733 416.414 959.139C421.383 963.499 423.961 969.522 424.148 977.21V1012.23C424.148 1019.21 425.039 1024.76 426.82 1028.89V1030.01H413.18ZM391.594 1020.1C395.672 1020.1 399.539 1019.05 403.195 1016.94C406.852 1014.83 409.5 1012.08 411.141 1008.71V993.1H400.945C385.008 993.1 377.039 997.764 377.039 1007.09C377.039 1011.17 378.398 1014.36 381.117 1016.66C383.836 1018.95 387.328 1020.1 391.594 1020.1ZM456.844 953.936L457.266 963.499C463.078 956.186 470.672 952.53 480.047 952.53C496.125 952.53 504.234 961.6 504.375 979.741V1030.01H491.367V979.671C491.32 974.186 490.055 970.132 487.57 967.507C485.133 964.882 481.312 963.569 476.109 963.569C471.891 963.569 468.188 964.694 465 966.944C461.812 969.194 459.328 972.147 457.547 975.803V1030.01H444.539V953.936H456.844ZM520.898 991.343C520.898 979.483 523.641 970.061 529.125 963.077C534.609 956.046 541.875 952.53 550.922 952.53C560.203 952.53 567.445 955.811 572.648 962.374L573.281 953.936H585.164V1028.19C585.164 1038.03 582.234 1045.79 576.375 1051.46C570.562 1057.13 562.734 1059.97 552.891 1059.97C547.406 1059.97 542.039 1058.8 536.789 1056.45C531.539 1054.11 527.531 1050.9 524.766 1046.82L531.516 1039.01C537.094 1045.91 543.914 1049.35 551.977 1049.35C558.305 1049.35 563.227 1047.57 566.742 1044.01C570.305 1040.44 572.086 1035.43 572.086 1028.96V1022.42C566.883 1028.42 559.781 1031.42 550.781 1031.42C541.875 1031.42 534.656 1027.83 529.125 1020.66C523.641 1013.49 520.898 1003.72 520.898 991.343ZM533.977 992.819C533.977 1001.4 535.734 1008.15 539.25 1013.07C542.766 1017.94 547.688 1020.38 554.016 1020.38C562.219 1020.38 568.242 1016.66 572.086 1009.2V974.468C568.102 967.202 562.125 963.569 554.156 963.569C547.828 963.569 542.883 966.03 539.32 970.952C535.758 975.874 533.977 983.163 533.977 992.819ZM651.82 1022.49C646.758 1028.44 639.328 1031.42 629.531 1031.42C621.422 1031.42 615.234 1029.08 610.969 1024.39C606.75 1019.66 604.617 1012.67 604.57 1003.44V953.936H617.578V1003.08C617.578 1014.62 622.266 1020.38 631.641 1020.38C641.578 1020.38 648.188 1016.68 651.469 1009.27V953.936H664.477V1030.01H652.102L651.82 1022.49ZM698.438 1030.01H685.43V922.014H698.438V1030.01ZM766.289 1030.01C765.539 1028.51 764.93 1025.84 764.461 1022C758.414 1028.28 751.195 1031.42 742.805 1031.42C735.305 1031.42 729.141 1029.31 724.312 1025.09C719.531 1020.83 717.141 1015.44 717.141 1008.92C717.141 1001 720.141 994.858 726.141 990.499C732.188 986.093 740.672 983.889 751.594 983.889H764.25V977.913C764.25 973.366 762.891 969.757 760.172 967.085C757.453 964.366 753.445 963.007 748.148 963.007C743.508 963.007 739.617 964.178 736.477 966.522C733.336 968.866 731.766 971.702 731.766 975.03H718.688C718.688 971.233 720.023 967.577 722.695 964.061C725.414 960.499 729.07 957.686 733.664 955.624C738.305 953.561 743.391 952.53 748.922 952.53C757.688 952.53 764.555 954.733 769.523 959.139C774.492 963.499 777.07 969.522 777.258 977.21V1012.23C777.258 1019.21 778.148 1024.76 779.93 1028.89V1030.01H766.289ZM744.703 1020.1C748.781 1020.1 752.648 1019.05 756.305 1016.94C759.961 1014.83 762.609 1012.08 764.25 1008.71V993.1H754.055C738.117 993.1 730.148 997.764 730.148 1007.09C730.148 1011.17 731.508 1014.36 734.227 1016.66C736.945 1018.95 740.438 1020.1 744.703 1020.1ZM834.422 965.608C832.453 965.28 830.32 965.116 828.023 965.116C819.492 965.116 813.703 968.749 810.656 976.014V1030.01H797.648V953.936H810.305L810.516 962.725C814.781 955.928 820.828 952.53 828.656 952.53C831.188 952.53 833.109 952.858 834.422 953.514V965.608ZM873.516 991.835H839.203V981.218H873.516V991.835ZM883.078 991.343C883.078 979.671 885.844 970.296 891.375 963.218C896.906 956.093 904.148 952.53 913.102 952.53C922.008 952.53 929.062 955.577 934.266 961.671V922.014H947.273V1030.01H935.32L934.688 1021.86C929.484 1028.23 922.242 1031.42 912.961 1031.42C904.148 1031.42 896.953 1027.81 891.375 1020.59C885.844 1013.37 883.078 1003.95 883.078 992.327V991.343ZM896.086 992.819C896.086 1001.44 897.867 1008.19 901.43 1013.07C904.992 1017.94 909.914 1020.38 916.195 1020.38C924.445 1020.38 930.469 1016.68 934.266 1009.27V974.327C930.375 967.155 924.398 963.569 916.336 963.569C909.961 963.569 904.992 966.03 901.43 970.952C897.867 975.874 896.086 983.163 896.086 992.819ZM1014.49 1030.01C1013.74 1028.51 1013.13 1025.84 1012.66 1022C1006.62 1028.28 999.398 1031.42 991.008 1031.42C983.508 1031.42 977.344 1029.31 972.516 1025.09C967.734 1020.83 965.344 1015.44 965.344 1008.92C965.344 1001 968.344 994.858 974.344 990.499C980.391 986.093 988.875 983.889 999.797 983.889H1012.45V977.913C1012.45 973.366 1011.09 969.757 1008.38 967.085C1005.66 964.366 1001.65 963.007 996.352 963.007C991.711 963.007 987.82 964.178 984.68 966.522C981.539 968.866 979.969 971.702 979.969 975.03H966.891C966.891 971.233 968.227 967.577 970.898 964.061C973.617 960.499 977.273 957.686 981.867 955.624C986.508 953.561 991.594 952.53 997.125 952.53C1005.89 952.53 1012.76 954.733 1017.73 959.139C1022.7 963.499 1025.27 969.522 1025.46 977.21V1012.23C1025.46 1019.21 1026.35 1024.76 1028.13 1028.89V1030.01H1014.49ZM992.906 1020.1C996.984 1020.1 1000.85 1019.05 1004.51 1016.94C1008.16 1014.83 1010.81 1012.08 1012.45 1008.71V993.1H1002.26C986.32 993.1 978.352 997.764 978.352 1007.09C978.352 1011.17 979.711 1014.36 982.43 1016.66C985.148 1018.95 988.641 1020.1 992.906 1020.1ZM1082.62 965.608C1080.66 965.28 1078.52 965.116 1076.23 965.116C1067.7 965.116 1061.91 968.749 1058.86 976.014V1030.01H1045.85V953.936H1058.51L1058.72 962.725C1062.98 955.928 1069.03 952.53 1076.86 952.53C1079.39 952.53 1081.31 952.858 1082.62 953.514V965.608ZM1115.88 994.788L1107.73 1003.3V1030.01H1094.72V922.014H1107.73V987.335L1114.69 978.968L1138.38 953.936H1154.2L1124.6 985.718L1157.65 1030.01H1142.39L1115.88 994.788ZM1194.7 991.835H1160.39V981.218H1194.7V991.835ZM1219.66 953.936L1220.02 962.374C1225.59 955.811 1233.12 952.53 1242.59 952.53C1253.23 952.53 1260.47 956.608 1264.31 964.764C1266.84 961.108 1270.12 958.155 1274.16 955.905C1278.23 953.655 1283.04 952.53 1288.57 952.53C1305.26 952.53 1313.74 961.366 1314.02 979.038V1030.01H1301.02V979.811C1301.02 974.374 1299.77 970.319 1297.29 967.647C1294.8 964.928 1290.63 963.569 1284.77 963.569C1279.95 963.569 1275.94 965.022 1272.75 967.928C1269.56 970.788 1267.71 974.655 1267.2 979.53V1030.01H1254.12V980.163C1254.12 969.1 1248.7 963.569 1237.88 963.569C1229.34 963.569 1223.51 967.202 1220.37 974.468V1030.01H1207.36V953.936H1219.66ZM1330.27 991.272C1330.27 983.819 1331.72 977.116 1334.62 971.163C1337.58 965.21 1341.66 960.616 1346.86 957.382C1352.11 954.147 1358.09 952.53 1364.79 952.53C1375.15 952.53 1383.52 956.116 1389.89 963.288C1396.31 970.46 1399.52 979.999 1399.52 991.905V992.819C1399.52 1000.23 1398.09 1006.88 1395.23 1012.79C1392.42 1018.65 1388.37 1023.22 1383.07 1026.5C1377.82 1029.78 1371.77 1031.42 1364.93 1031.42C1354.62 1031.42 1346.25 1027.83 1339.83 1020.66C1333.45 1013.49 1330.27 1004 1330.27 992.186V991.272ZM1343.34 992.819C1343.34 1001.26 1345.29 1008.03 1349.18 1013.14C1353.12 1018.25 1358.37 1020.8 1364.93 1020.8C1371.54 1020.8 1376.79 1018.23 1380.68 1013.07C1384.57 1007.87 1386.52 1000.6 1386.52 991.272C1386.52 982.928 1384.52 976.178 1380.54 971.022C1376.6 965.819 1371.35 963.218 1364.79 963.218C1358.37 963.218 1353.19 965.772 1349.25 970.882C1345.31 975.991 1343.34 983.303 1343.34 992.819ZM1412.67 991.343C1412.67 979.671 1415.44 970.296 1420.97 963.218C1426.5 956.093 1433.74 952.53 1442.7 952.53C1451.6 952.53 1458.66 955.577 1463.86 961.671V922.014H1476.87V1030.01H1464.91L1464.28 1021.86C1459.08 1028.23 1451.84 1031.42 1442.55 1031.42C1433.74 1031.42 1426.55 1027.81 1420.97 1020.59C1415.44 1013.37 1412.67 1003.95 1412.67 992.327V991.343ZM1425.68 992.819C1425.68 1001.44 1427.46 1008.19 1431.02 1013.07C1434.59 1017.94 1439.51 1020.38 1445.79 1020.38C1454.04 1020.38 1460.06 1016.68 1463.86 1009.27V974.327C1459.97 967.155 1453.99 963.569 1445.93 963.569C1439.55 963.569 1434.59 966.03 1431.02 970.952C1427.46 975.874 1425.68 983.163 1425.68 992.819ZM1528.69 1031.42C1518.38 1031.42 1509.98 1028.05 1503.52 1021.3C1497.05 1014.5 1493.81 1005.43 1493.81 994.085V991.694C1493.81 984.147 1495.24 977.421 1498.1 971.514C1501.01 965.561 1505.04 960.921 1510.2 957.593C1515.4 954.218 1521.02 952.53 1527.07 952.53C1536.96 952.53 1544.65 955.788 1550.13 962.303C1555.62 968.819 1558.36 978.147 1558.36 990.288V995.702H1506.82C1507.01 1003.2 1509.19 1009.27 1513.36 1013.91C1517.58 1018.51 1522.92 1020.8 1529.39 1020.8C1533.98 1020.8 1537.88 1019.87 1541.06 1017.99C1544.25 1016.12 1547.04 1013.63 1549.43 1010.54L1557.38 1016.73C1551 1026.52 1541.44 1031.42 1528.69 1031.42ZM1527.07 963.218C1521.82 963.218 1517.41 965.139 1513.85 968.983C1510.29 972.78 1508.09 978.124 1507.24 985.014H1545.35V984.03C1544.98 977.421 1543.2 972.311 1540.01 968.702C1536.82 965.046 1532.51 963.218 1527.07 963.218Z" fill="#2F2E41"/>
<defs>
<clipPath id="clip0">
<rect width="1920" height="858.715" fill="white"/>
</clipPath>
</defs>
</svg>
