<?xml version="1.0" encoding="iso-8859-1"?>
<!-- Generator: Adobe Illustrator 19.0.0, SVG Export Plug-In . SVG Version: 6.00 Build 0)  -->
<svg version="1.1" id="Capa_1" xmlns="http://www.w3.org/2000/svg" xmlns:xlink="http://www.w3.org/1999/xlink" x="0px" y="0px"
	 viewBox="0 0 512.003 512.003" style="enable-background:new 0 0 512.003 512.003;" xml:space="preserve">
<path style="fill:#F7D88B;" d="M416.426,311.114l64.847-44.322c7.593-5.19,7.593-16.39,0-21.579l-64.847-44.322
	c-6.276-4.29-9.422-11.884-8.017-19.355l14.513-77.194c1.699-9.038-6.221-16.958-15.259-15.259l-77.194,14.513
	c-7.471,1.405-15.066-1.741-19.355-8.017L266.791,30.73c-5.189-7.593-16.39-7.593-21.579,0L200.89,95.577
	c-4.29,6.276-11.884,9.422-19.355,8.017L104.34,89.081c-9.039-1.699-16.958,6.22-15.259,15.259l14.513,77.194
	c1.405,7.471-1.741,15.066-8.017,19.355L30.73,245.21c-7.593,5.19-7.593,16.39,0,21.579l64.847,44.322
	c6.276,4.29,9.422,11.884,8.017,19.355l-14.513,77.196c-1.699,9.038,6.221,16.958,15.259,15.259l77.194-14.513
	c7.471-1.405,15.066,1.741,19.355,8.017l44.322,64.847c5.189,7.593,16.39,7.593,21.579,0l44.322-64.847
	c4.29-6.276,11.884-9.422,19.355-8.017l77.194,14.513c9.038,1.699,16.958-6.221,15.259-15.259l-14.513-77.195
	C407.004,322.998,410.15,315.403,416.426,311.114z"/>
<circle style="fill:#F49E73;" cx="260.321" cy="256.001" r="140.45"/>
<g>
	<path style="fill:#EF9067;" d="M256.002,396.447c30.061,0,57.912-9.449,80.756-25.533
		c-152.68-23.155-166.554-200.009-92.621-254.854c-72.012,6.025-128.581,66.373-128.581,139.942
		C115.556,333.567,178.436,396.447,256.002,396.447z"/>
	<path style="fill:#EF9067;" d="M340.454,68.956c-2.149,0-4.334-0.414-6.443-1.287c-8.598-3.562-12.682-13.42-9.121-22.019
		l14.598-35.241c3.561-8.599,13.422-12.681,22.019-9.121c8.598,3.562,12.682,13.42,9.121,22.019L356.03,58.548
		C353.342,65.038,347.066,68.956,340.454,68.956z"/>
	<path style="fill:#EF9067;" d="M495.139,371.914c-2.149,0-4.334-0.414-6.443-1.287l-35.242-14.598
		c-8.598-3.562-12.682-13.42-9.121-22.019s13.421-12.681,22.019-9.121l35.242,14.598c8.598,3.562,12.682,13.42,9.121,22.019
		C508.027,367.997,501.751,371.914,495.139,371.914z"/>
	<path style="fill:#EF9067;" d="M52.093,188.398c-2.149,0-4.334-0.414-6.443-1.287l-35.242-14.598
		c-8.598-3.562-12.682-13.42-9.121-22.019s13.421-12.682,22.019-9.121l35.242,14.598c8.598,3.562,12.682,13.42,9.121,22.019
		C64.981,184.48,58.705,188.398,52.093,188.398z"/>
	<path style="fill:#EF9067;" d="M156.939,512.001c-2.149,0-4.334-0.414-6.442-1.287c-8.598-3.562-12.682-13.42-9.121-22.019
		l14.598-35.241c3.561-8.599,13.421-12.681,22.019-9.121c8.598,3.562,12.682,13.42,9.121,22.019l-14.598,35.241
		C169.827,508.084,163.551,512.001,156.939,512.001z"/>
	<path style="fill:#EF9067;" d="M171.549,68.956c-6.614,0-12.887-3.917-15.576-10.408l-14.598-35.241
		c-3.561-8.598,0.522-18.457,9.121-22.019c8.598-3.559,18.457,0.522,22.019,9.121l14.598,35.241
		c3.561,8.598-0.522,18.457-9.121,22.019C175.883,68.542,173.699,68.956,171.549,68.956z"/>
	<path style="fill:#EF9067;" d="M16.864,371.914c-6.614,0-12.888-3.917-15.576-10.408c-3.561-8.599,0.522-18.457,9.121-22.019
		l35.242-14.598c8.597-3.561,18.457,0.521,22.019,9.121c3.561,8.599-0.522,18.457-9.121,22.019l-35.242,14.598
		C21.198,371.501,19.014,371.914,16.864,371.914z"/>
	<path style="fill:#EF9067;" d="M459.91,188.398c-6.614,0-12.888-3.917-15.576-10.408c-3.561-8.599,0.522-18.457,9.121-22.019
		l35.242-14.598c8.598-3.56,18.457,0.521,22.019,9.121c3.561,8.599-0.522,18.457-9.121,22.019l-35.242,14.598
		C464.244,187.986,462.06,188.398,459.91,188.398z"/>
	<path style="fill:#EF9067;" d="M355.064,512.001c-6.614,0-12.888-3.917-15.576-10.408l-14.598-35.241
		c-3.561-8.598,0.522-18.457,9.121-22.019c8.597-3.559,18.456,0.522,22.019,9.121l14.598,35.241
		c3.561,8.598-0.522,18.457-9.121,22.019C359.398,511.588,357.214,512.001,355.064,512.001z"/>
</g>
<g>
	<ellipse style="fill:#F27281;" cx="217.351" cy="226.43" rx="23.48" ry="18.698"/>
	<ellipse style="fill:#F27281;" cx="344.621" cy="226.43" rx="23.48" ry="18.698"/>
</g>
<g>
	<path style="fill:#464D59;" d="M231.04,215.281c-4.143,0-7.5-3.358-7.5-7.5v-8.291c0-4.142,3.357-7.5,7.5-7.5s7.5,3.358,7.5,7.5
		v8.291C238.54,211.923,235.182,215.281,231.04,215.281z"/>
	<path style="fill:#464D59;" d="M330.941,215.281c-4.143,0-7.5-3.358-7.5-7.5v-8.291c0-4.142,3.357-7.5,7.5-7.5
		c4.142,0,7.5,3.358,7.5,7.5v8.291C338.441,211.923,335.084,215.281,330.941,215.281z"/>
	<path style="fill:#464D59;" d="M280.991,221.648c-7.216,0-14.076-3.124-18.824-8.572c-2.722-3.123-2.396-7.86,0.727-10.582
		c3.122-2.721,7.86-2.396,10.582,0.727c1.898,2.178,4.638,3.427,7.516,3.427s5.617-1.249,7.515-3.427
		c2.722-3.123,7.457-3.448,10.582-0.727c3.122,2.722,3.448,7.459,0.727,10.582C295.066,218.523,288.206,221.648,280.991,221.648z"/>
</g>
<g>
</g>
<g>
</g>
<g>
</g>
<g>
</g>
<g>
</g>
<g>
</g>
<g>
</g>
<g>
</g>
<g>
</g>
<g>
</g>
<g>
</g>
<g>
</g>
<g>
</g>
<g>
</g>
<g>
</g>
</svg>
